<?xml version="1.0" encoding="utf-8"?>
<!-- Generator: Adobe Illustrator 26.5.0, SVG Export Plug-In . SVG Version: 6.00 Build 0)  -->
<svg version="1.1" id="Calque_1" xmlns="http://www.w3.org/2000/svg" xmlns:xlink="http://www.w3.org/1999/xlink" x="0px" y="0px"
	 viewBox="0 0 167.3 167.3" style="enable-background:new 0 0 167.3 167.3;" xml:space="preserve">
<style type="text/css">
	
		.st0{clip-path:url(#SVGID_00000004505445178506548210000003284479420383134874_);fill:url(#SVGID_00000016051923511354216990000005286490126742941096_);}
	
		.st1{clip-path:url(#SVGID_00000005962495810789168550000002029523514284919439_);fill:url(#SVGID_00000116215961348722933450000008316989038804998016_);}
	
		.st2{clip-path:url(#SVGID_00000174579772533429193100000016680992380433021843_);fill:url(#SVGID_00000049179434532201972170000005393699855940229801_);}
	
		.st3{clip-path:url(#SVGID_00000133511649245338139800000002977790394568595086_);fill:url(#SVGID_00000082333660410909198420000001306904925513653681_);}
	
		.st4{clip-path:url(#SVGID_00000127046132182152589140000000736048017483808911_);fill:url(#SVGID_00000119118230511725406410000000039254202032521132_);}
</style>
<g>
	<defs>
		<path id="SVGID_1_" d="M29.98,10.78c0,18.31,1.08,117.52,4.32,152.02c4.32,3.24,44.26,4.31,44.26,4.31
			C14.86,69,46.17,21.56,62.36,0C51.35,2.93,40.54,6.53,29.98,10.78"/>
	</defs>
	<clipPath id="SVGID_00000132055226498946029290000004073154019149295508_">
		<use xlink:href="#SVGID_1_"  style="overflow:visible;"/>
	</clipPath>
	
		<linearGradient id="SVGID_00000101067593561553210200000013815776983241768068_" gradientUnits="userSpaceOnUse" x1="-0.0248" y1="485.6489" x2="0.9813" y2="485.6489" gradientTransform="matrix(64.6863 -172.7719 -49.9511 -223.7386 24280.0781 108809.5781)">
		<stop  offset="0" style="stop-color:#A75726"/>
		<stop  offset="1.000000e-03" style="stop-color:#A75726"/>
		<stop  offset="0.281" style="stop-color:#C5702B"/>
		<stop  offset="0.521" style="stop-color:#D7802F"/>
		<stop  offset="0.692" style="stop-color:#DE8530"/>
		<stop  offset="0.764" style="stop-color:#DA832F"/>
		<stop  offset="0.839" style="stop-color:#CE7C2E"/>
		<stop  offset="0.914" style="stop-color:#B9702B"/>
		<stop  offset="0.989" style="stop-color:#9D5F26"/>
		<stop  offset="0.995" style="stop-color:#9A5E26"/>
		<stop  offset="1" style="stop-color:#9A5E26"/>
	</linearGradient>
	
		<polygon style="clip-path:url(#SVGID_00000132055226498946029290000004073154019149295508_);fill:url(#SVGID_00000101067593561553210200000013815776983241768068_);" points="
		-8.63,62.42 54.76,-105.99 102.05,104.69 38.66,273.1 	"/>
</g>
<g>
	<defs>
		<path id="SVGID_00000158711018338455310310000015571431330792220830_" d="M78.19,167.11C78.19,167.11,78.19,167.11,78.19,167.11
			C78.19,167.11,78.19,167.11,78.19,167.11 M52.39,51.91v1.08V53c-17.15,35.44,25.6,112.67,25.8,114.11
			c-1.07-12.53-1.07-25.14,0-37.67c1.07-11.84,2.15-21.53,17.2-25.84c12.77-2.63,25.7-4.42,38.71-5.37
			c-1.07-1.08-7.52-4.31-43.01-3.23c-21.5,0-20.43-21.53-4.3-22.61c12.55-0.44,25.12-0.08,37.63,1.08c0,0-20.43-3.23-34.41-6.46
			c-8.02-0.3-14.27-7.02-13.97-15.02l0-0.08H52.39z"/>
	</defs>
	<clipPath id="SVGID_00000034806149567304684830000015765948527885958562_">
		<use xlink:href="#SVGID_00000158711018338455310310000015571431330792220830_"  style="overflow:visible;"/>
	</clipPath>
	
		<radialGradient id="SVGID_00000091718726477062392720000009959820978375798683_" cx="-0.0236" cy="485.5778" r="1" gradientTransform="matrix(78.4838 0 0 -78.2553 107.1198 38108.9141)" gradientUnits="userSpaceOnUse">
		<stop  offset="0" style="stop-color:#AB8052"/>
		<stop  offset="0.338" style="stop-color:#AB8052"/>
		<stop  offset="0.374" style="stop-color:#B18453"/>
		<stop  offset="0.651" style="stop-color:#DAA259"/>
		<stop  offset="0.869" style="stop-color:#F4B55E"/>
		<stop  offset="1" style="stop-color:#FDBC5F"/>
	</radialGradient>
	
		<rect x="35.24" y="51.91" style="clip-path:url(#SVGID_00000034806149567304684830000015765948527885958562_);fill:url(#SVGID_00000091718726477062392720000009959820978375798683_);" width="98.87" height="115.2"/>
</g>
<g>
	<defs>
		<path id="SVGID_00000073701191500114014970000007335375277437007258_" d="M58.71,43.33c-2.52,2.97-4.69,6.22-6.46,9.69l1.08,2.16
			h21.54l1.09-2.16c1.08-6.47,8.62-17.25,34.47-16.17l-0.01,0.01c25.85,2.16,25.85-2.16,25.85-2.16s-17.23-5.63-36.62-5.63
			C85.08,29.07,69.32,32.24,58.71,43.33"/>
	</defs>
	<clipPath id="SVGID_00000137099466962785370600000002295706377658982579_">
		<use xlink:href="#SVGID_00000073701191500114014970000007335375277437007258_"  style="overflow:visible;"/>
	</clipPath>
	
		<radialGradient id="SVGID_00000164515333728917227420000007782760249936911779_" cx="-0.0236" cy="485.5778" r="1" gradientTransform="matrix(271.3596 0 0 -270.4735 1511.377 131451.8281)" gradientUnits="userSpaceOnUse">
		<stop  offset="0" style="stop-color:#AB8052"/>
		<stop  offset="0.338" style="stop-color:#AB8052"/>
		<stop  offset="0.374" style="stop-color:#B18453"/>
		<stop  offset="0.651" style="stop-color:#DAA259"/>
		<stop  offset="0.869" style="stop-color:#F4B55E"/>
		<stop  offset="1" style="stop-color:#FDBC5F"/>
	</radialGradient>
	
		<rect x="52.24" y="29.07" style="clip-path:url(#SVGID_00000137099466962785370600000002295706377658982579_);fill:url(#SVGID_00000164515333728917227420000007782760249936911779_);" width="84.01" height="26.11"/>
</g>
<g>
	<defs>
		<path id="SVGID_00000152254042053167103270000017512797287807560323_" d="M86.04,72.35c-16.42,1.08-17.51,22.79,4.38,22.79
			c36.12,0,42.69,3.26,43.78,3.26l-9.85-24.96c-9.32-0.83-18.68-1.25-28.04-1.25C92.88,72.18,89.46,72.23,86.04,72.35"/>
	</defs>
	<clipPath id="SVGID_00000161597040487414208220000014523981971056283314_">
		<use xlink:href="#SVGID_00000152254042053167103270000017512797287807560323_"  style="overflow:visible;"/>
	</clipPath>
	
		<radialGradient id="SVGID_00000036930850505449010210000005507196070043596948_" cx="-0.0236" cy="485.6145" r="1" gradientTransform="matrix(27.8 0 0 -27.4399 124.0364 13397.5439)" gradientUnits="userSpaceOnUse">
		<stop  offset="0" style="stop-color:#DE8530"/>
		<stop  offset="0.226" style="stop-color:#DA832F"/>
		<stop  offset="0.451" style="stop-color:#CE7C2D"/>
		<stop  offset="0.675" style="stop-color:#BA702A"/>
		<stop  offset="0.899" style="stop-color:#9E6026"/>
		<stop  offset="1" style="stop-color:#8F5723"/>
	</radialGradient>
	
		<rect x="68.52" y="72.18" style="clip-path:url(#SVGID_00000161597040487414208220000014523981971056283314_);fill:url(#SVGID_00000036930850505449010210000005507196070043596948_);" width="65.68" height="26.21"/>
</g>
<g>
	<defs>
		<path id="SVGID_00000033339735508092672590000017400986802472394420_" d="M78.28,167.3L78.28,167.3
			c-9.66-21.56-48.3-93.79-19.32-123.97c24.69-25.87,78.37-8.62,78.37-8.62s-3.22-16.16-5.37-22.64c-0.84-1.92-2.37-3.46-4.29-4.31
			c-21.93-4.38-44.2-6.9-66.56-7.55C62.18,0.21,3.14,50.88,78.28,167.3"/>
	</defs>
	<clipPath id="SVGID_00000089546749813196804480000014401841084421610169_">
		<use xlink:href="#SVGID_00000033339735508092672590000017400986802472394420_"  style="overflow:visible;"/>
	</clipPath>
	
		<linearGradient id="SVGID_00000161610818984399026450000017021885446269786535_" gradientUnits="userSpaceOnUse" x1="-0.0236" y1="485.5753" x2="0.9764" y2="485.5753" gradientTransform="matrix(1568.1119 515.144 299.8515 -2694.0117 -144760.4062 1308482.125)">
		<stop  offset="0" style="stop-color:#A75726"/>
		<stop  offset="1.000000e-03" style="stop-color:#A75726"/>
		<stop  offset="0.281" style="stop-color:#C5702B"/>
		<stop  offset="0.521" style="stop-color:#D7802F"/>
		<stop  offset="0.692" style="stop-color:#DE8530"/>
		<stop  offset="0.764" style="stop-color:#DA832F"/>
		<stop  offset="0.839" style="stop-color:#CE7C2E"/>
		<stop  offset="0.914" style="stop-color:#B9702B"/>
		<stop  offset="0.989" style="stop-color:#9D5F26"/>
		<stop  offset="0.995" style="stop-color:#9A5E26"/>
		<stop  offset="1" style="stop-color:#9A5E26"/>
	</linearGradient>
	
		<polygon style="clip-path:url(#SVGID_00000089546749813196804480000014401841084421610169_);fill:url(#SVGID_00000161610818984399026450000017021885446269786535_);" points="
		7.87,-42.32 155.27,6.1 132.59,209.83 -14.8,161.41 	"/>
</g>
</svg>
